<svg preserveAspectRatio="none" width="100%" height="100%" overflow="visible" style="display: block;" viewBox="0 0 32 32" fill="none" xmlns="http://www.w3.org/2000/svg">
<g id="Group">
<path id="Vector" d="M31.8646 13.9131H18.0871H18.087V0.135438C17.4038 0.0465 16.7073 0 16 0C15.2926 0 14.5962 0.0465 13.9131 0.135438V13.9129V13.913H0.135438C0.0465 14.5962 0 15.2927 0 16C0 16.7074 0.0465 17.4038 0.135438 18.0869H13.9129H13.913V31.8646C14.5962 31.9535 15.2926 32 16 32C16.7073 32 17.4038 31.9536 18.0869 31.8646V18.0871V18.087H31.8646C31.9535 17.4038 32 16.7074 32 16C32 15.2927 31.9535 14.5962 31.8646 13.9131V13.9131Z" fill="var(--fill-0, #D80027)"/>
<path id="Vector_2" d="M20.1739 20.174L27.3137 27.3137C27.6421 26.9855 27.9553 26.6423 28.2542 26.2866L22.1416 20.1739H20.1739V20.174Z" fill="var(--fill-0, #D80027)"/>
<path id="Vector_3" d="M11.8261 20.174H11.8259L4.68625 27.3137C5.0145 27.6421 5.35769 27.9553 5.71344 28.2542L11.8261 22.1414V20.174Z" fill="var(--fill-0, #D80027)"/>
<path id="Vector_4" d="M11.8261 11.8262V11.8261L4.68631 4.68625C4.35794 5.0145 4.04469 5.35769 3.74581 5.71344L9.8585 11.8261H11.8261V11.8262Z" fill="var(--fill-0, #D80027)"/>
<path id="Vector_5" d="M20.1739 11.8262L27.3137 4.68631C26.9855 4.35794 26.6423 4.04469 26.2866 3.74588L20.1739 9.85856V11.8262Z" fill="var(--fill-0, #D80027)"/>
</g>
</svg>
