<svg preserveAspectRatio="none" width="100%" height="100%" overflow="visible" style="display: block;" viewBox="0 0 30.8976 30.8976" fill="none" xmlns="http://www.w3.org/2000/svg">
<g id="Group">
<path id="Vector" d="M2.75631 5.70769C1.4995 7.34287 0.551813 9.22756 0 11.275H8.32362L2.75631 5.70769Z" fill="var(--fill-0, #0052B4)"/>
<path id="Vector_2" d="M30.8976 11.275C30.3458 9.22762 29.3981 7.34294 28.1413 5.70775L22.5741 11.275H30.8976Z" fill="var(--fill-0, #0052B4)"/>
<path id="Vector_3" d="M0 19.6228C0.551875 21.6702 1.49956 23.5549 2.75631 25.19L8.32344 19.6228H0Z" fill="var(--fill-0, #0052B4)"/>
<path id="Vector_4" d="M25.1899 2.75638C23.5548 1.49956 21.6701 0.551875 19.6227 0V8.32356L25.1899 2.75638Z" fill="var(--fill-0, #0052B4)"/>
<path id="Vector_5" d="M5.70769 28.1413C7.34288 29.3981 9.22756 30.3457 11.2749 30.8976V22.5741L5.70769 28.1413Z" fill="var(--fill-0, #0052B4)"/>
<path id="Vector_6" d="M11.2749 0C9.2275 0.551875 7.34281 1.49956 5.70769 2.75631L11.2749 8.3235V0Z" fill="var(--fill-0, #0052B4)"/>
<path id="Vector_7" d="M19.6227 30.8976C21.6701 30.3457 23.5548 29.3981 25.1899 28.1413L19.6227 22.5741V30.8976Z" fill="var(--fill-0, #0052B4)"/>
<path id="Vector_8" d="M22.5741 19.6228L28.1413 25.1901C29.3981 23.5549 30.3458 21.6702 30.8976 19.6228H22.5741Z" fill="var(--fill-0, #0052B4)"/>
</g>
</svg>
