<svg preserveAspectRatio="none" width="100%" height="100%" overflow="visible" style="display: block;" viewBox="0 0 16.887 14.25" fill="none" xmlns="http://www.w3.org/2000/svg">
<path id="Vector" d="M0.75 5.75H3C3.0663 5.75 3.12987 5.77636 3.17676 5.82324C3.22364 5.87013 3.25 5.9337 3.25 6V6.50098L3.75098 6.5C4.81654 6.49848 5.85125 6.85718 6.6875 7.51758L6.82422 7.625H8.625C9.47643 7.625 10.2402 7.99522 10.7676 8.58398L10.917 8.75H13.5C14.1144 8.74983 14.7168 8.92396 15.2363 9.25195C15.6697 9.52559 16.0289 9.89826 16.29 10.3359C14.598 12.4112 11.9652 13.75 9 13.75C6.98014 13.75 5.295 13.3133 3.94629 12.5684L3.43457 12.2861L3.23535 12.8359C3.21793 12.884 3.18544 12.9258 3.14355 12.9551C3.10173 12.9843 3.052 13.0001 3.00098 13H0.75C0.683695 13 0.620126 12.9736 0.573242 12.9268C0.526359 12.8799 0.5 12.8163 0.5 12.75V6C0.5 5.9337 0.526358 5.87013 0.573242 5.82324C0.620126 5.77636 0.683696 5.75 0.75 5.75ZM3.25098 7.5L3.25 11.2666V11.5244L3.45996 11.6738L3.49414 11.6982L3.49609 11.7002C4.94285 12.7157 6.80267 13.25 9 13.25C11.3817 13.25 13.6034 12.3335 15.2246 10.7617L15.2295 10.7559L15.3291 10.6562L15.7168 10.2695L15.2959 9.91895L15.2061 9.84375L15.1943 9.83398L15.0273 9.71387C14.6293 9.44768 14.1676 9.28948 13.6875 9.25684L13.6797 9.25586H13.6709L13.5166 9.25H11.293L11.4287 9.85938C11.475 10.0663 11.5 10.2801 11.5 10.5V10.75H5.75V10.249H11.1055L10.8008 9.5498L10.7754 9.49121L10.7715 9.48242L10.7676 9.47461C10.5856 9.09449 10.306 8.76949 9.95703 8.5332C9.60792 8.2969 9.2019 8.15761 8.78125 8.12988L8.77246 8.12891H8.76367L8.64062 8.125H6.62988C6.26847 7.79122 5.85101 7.52214 5.39648 7.33105C4.87584 7.11224 4.31671 6.9997 3.75195 7H3.25098V7.5ZM1 12.5H2.75V6.25H1V12.5ZM12.75 2.75C13.2141 2.75 13.6591 2.93451 13.9873 3.2627C14.3155 3.59088 14.5 4.03587 14.5 4.5L14.4912 4.67285C14.4515 5.0735 14.2745 5.45012 13.9873 5.7373C13.6591 6.06549 13.2141 6.25 12.75 6.25C12.2859 6.25 11.8409 6.06549 11.5127 5.7373C11.1845 5.40912 11 4.96413 11 4.5C11 4.03587 11.1845 3.59088 11.5127 3.2627C11.8409 2.93451 12.2859 2.75 12.75 2.75ZM12.75 3.25C12.4185 3.25 12.1006 3.38179 11.8662 3.61621C11.6318 3.85063 11.5 4.16848 11.5 4.5C11.5 4.83152 11.6318 5.14937 11.8662 5.38379C12.1006 5.61821 12.4185 5.75 12.75 5.75C13.0815 5.75 13.3994 5.61821 13.6338 5.38379C13.8682 5.14937 14 4.83152 14 4.5C14 4.16848 13.8682 3.85063 13.6338 3.61621C13.3994 3.38179 13.0815 3.25 12.75 3.25ZM7.5 0.5C7.96413 0.5 8.40912 0.684507 8.7373 1.0127C9.06549 1.34088 9.25 1.78587 9.25 2.25C9.25 2.71413 9.06549 3.15912 8.7373 3.4873C8.40912 3.81549 7.96413 4 7.5 4C7.03587 4 6.59088 3.81549 6.2627 3.4873C5.93451 3.15912 5.75 2.71413 5.75 2.25C5.75 1.78587 5.93451 1.34088 6.2627 1.0127C6.59088 0.684507 7.03587 0.5 7.5 0.5ZM7.5 1C7.16848 1 6.85063 1.13179 6.61621 1.36621C6.38179 1.60063 6.25 1.91848 6.25 2.25C6.25 2.58152 6.38179 2.89937 6.61621 3.13379C6.85063 3.36821 7.16848 3.5 7.5 3.5C7.83152 3.5 8.14937 3.36821 8.38379 3.13379C8.61821 2.89937 8.75 2.58152 8.75 2.25C8.75 1.91848 8.61821 1.60063 8.38379 1.36621C8.14937 1.13179 7.83152 1 7.5 1Z" fill="var(--fill-0, #171717)" stroke="var(--stroke-0, #A4A4A4)"/>
</svg>
