<svg preserveAspectRatio="none" width="100%" height="100%" overflow="visible" style="display: block;" viewBox="0 0 14.8333 14.3475" fill="none" xmlns="http://www.w3.org/2000/svg">
<g id="Vector">
<path d="M10.75 8.59747C10.75 8.82759 10.5635 9.01413 10.3333 9.01413C10.1032 9.01413 9.91667 8.82759 9.91667 8.59747C9.91667 8.36735 10.1032 8.1808 10.3333 8.1808C10.5635 8.1808 10.75 8.36735 10.75 8.59747Z" fill="var(--fill-0, #A4A4A4)"/>
<path d="M12.4167 3.59747V2.25136C12.4167 1.25521 11.4635 0.535774 10.5055 0.808806L1.83887 3.27881C1.19444 3.46247 0.75 4.05128 0.75 4.72136V6.09747M10.75 8.59747C10.75 8.82759 10.5635 9.01413 10.3333 9.01413C10.1032 9.01413 9.91667 8.82759 9.91667 8.59747C9.91667 8.36735 10.1032 8.1808 10.3333 8.1808C10.5635 8.1808 10.75 8.36735 10.75 8.59747ZM1.75 13.5975H13.0833C13.6356 13.5975 14.0833 13.1498 14.0833 12.5975V4.59747C14.0833 4.04518 13.6356 3.59747 13.0833 3.59747H1.75C1.19772 3.59747 0.75 4.04518 0.75 4.59747V12.5975C0.75 13.1498 1.19771 13.5975 1.75 13.5975Z" stroke="var(--stroke-0, #A4A4A4)" stroke-width="1.5" stroke-linecap="round" stroke-linejoin="round"/>
</g>
</svg>
